<svg width="22" height="24" viewBox="0 0 22 24" fill="none" xmlns="http://www.w3.org/2000/svg">
<g clip-path="url(#clip0_377_1978)">
<path d="M10.7798 0.0234131C10.9251 -0.00471191 11.0751 -0.00471191 11.2204 0.0234131L20.5954 1.89841C21.1204 2.00154 21.5001 2.4656 21.5001 2.99998C21.5001 3.53435 21.1204 3.99841 20.5954 4.10154L17.0001 4.82341V7.49998C17.0001 10.814 14.3142 13.5 11.0001 13.5C7.68607 13.5 5.00013 10.814 5.00013 7.49998V4.82341L2.75013 4.37341V7.42498L3.48607 11.1C3.52826 11.3203 3.47201 11.55 3.33138 11.7234C3.19076 11.8969 2.97513 12 2.75013 12H1.25013C1.02513 12 0.814196 11.9015 0.668884 11.7234C0.523571 11.5453 0.467321 11.3203 0.514196 11.1L1.25013 7.42498V4.05935C0.804821 3.90466 0.500134 3.48279 0.500134 2.99998C0.500134 2.4656 0.879821 2.00154 1.40482 1.89841L10.7798 0.0234131ZM5.74545 15.3609C6.23763 15.2015 6.76732 15.3797 7.12357 15.7594L10.4517 19.2984C10.747 19.6125 11.2486 19.6125 11.5439 19.2984L14.872 15.7594C15.2283 15.3797 15.7579 15.2015 16.2501 15.3609C19.297 16.3406 21.5001 19.1906 21.5001 22.5609C21.5001 23.3578 20.8533 24 20.0611 24H1.9392C1.14701 24 0.500134 23.3531 0.500134 22.5609C0.500134 19.1906 2.70326 16.3406 5.74545 15.3609Z" fill="#2563EB"/>
</g>
<defs>
<clipPath id="clip0_377_1978">
<path d="M0.5 0H21.5V24H0.5V0Z" fill="white"/>
</clipPath>
</defs>
</svg>
