<svg width="28" height="24" viewBox="0 0 28 24" fill="none" xmlns="http://www.w3.org/2000/svg">
<g clip-path="url(#clip0_377_2014)">
<path d="M7.4375 3.59062C7.4375 1.60781 9.04531 0 11.0281 0C11.9797 0 12.8938 0.379687 13.5641 1.05L14 1.48594L14.4359 1.05C15.1062 0.379687 16.0203 0 16.9719 0C18.9547 0 20.5625 1.60781 20.5625 3.59062C20.5625 4.54219 20.1828 5.45625 19.5125 6.12656L14.6609 10.9734C14.2953 11.3391 13.7 11.3391 13.3344 10.9734L8.4875 6.12656C7.81719 5.45625 7.4375 4.54219 7.4375 3.59062ZM27.1344 15.7641C27.7484 16.5984 27.5703 17.7703 26.7359 18.3844L20.8016 22.7578C19.7047 23.5641 18.3828 24 17.0187 24H9.5H2C1.17031 24 0.5 23.3297 0.5 22.5V19.5C0.5 18.6703 1.17031 18 2 18H3.725L5.82969 16.3125C6.89375 15.4594 8.21562 15 9.57969 15H13.25H14H17C17.8297 15 18.5 15.6703 18.5 16.5C18.5 17.3297 17.8297 18 17 18H14H13.25C12.8375 18 12.5 18.3375 12.5 18.75C12.5 19.1625 12.8375 19.5 13.25 19.5H18.9031L24.5141 15.3656C25.3484 14.7516 26.5203 14.9297 27.1344 15.7641ZM9.575 18H9.53281C9.54688 18 9.56094 18 9.575 18Z" fill="#2563EB"/>
</g>
<defs>
<clipPath id="clip0_377_2014">
<path d="M0.5 0H27.5V24H0.5V0Z" fill="white"/>
</clipPath>
</defs>
</svg>
