<svg width="24" height="24" viewBox="0 0 24 24" fill="none" xmlns="http://www.w3.org/2000/svg">
<path d="M12 2.99996L12.295 2.30996C12.2018 2.27008 12.1014 2.24951 12 2.24951C11.8986 2.24951 11.7982 2.27008 11.705 2.30996L12 2.99996ZM12 21L11.628 21.651C11.7413 21.7157 11.8695 21.7497 12 21.7497C12.1305 21.7497 12.2587 21.7157 12.372 21.651L12 21ZM11.704 2.31096L5.312 5.04996L5.9 6.42996L12.294 3.68996L11.704 2.31096ZM4.25 6.65896V13.519H5.75V6.65896H4.25ZM7.651 19.379L11.628 21.651L12.372 20.349L8.395 18.076L7.651 19.379ZM12.372 21.651L16.349 19.379L15.605 18.076L11.628 20.349L12.372 21.651ZM19.75 13.518V6.65996H18.25V13.52L19.75 13.518ZM18.69 5.05096L12.295 2.31096L11.705 3.68896L18.099 6.42996L18.69 5.05096ZM19.75 6.65996C19.75 5.95996 19.333 5.32696 18.69 5.05096L18.099 6.42996C18.1439 6.44933 18.1821 6.48144 18.209 6.52232C18.2358 6.5632 18.2501 6.61106 18.25 6.65996H19.75ZM16.349 19.379C17.3821 18.7886 18.2407 17.9357 18.838 16.9066C19.4353 15.8775 19.7499 14.7088 19.75 13.519H18.25C18.2498 14.4443 18.0051 15.3531 17.5406 16.1533C17.0761 16.9536 16.4083 17.6168 15.605 18.076L16.349 19.379ZM4.25 13.519C4.25011 14.7088 4.56473 15.8775 5.16199 16.9066C5.75925 17.9357 6.61792 18.7886 7.651 19.379L8.395 18.076C7.59151 17.6168 6.92367 16.9533 6.45917 16.1529C5.99468 15.3524 5.75002 14.4434 5.75 13.518L4.25 13.519ZM5.31 5.04996C4.99541 5.18494 4.72731 5.40922 4.5389 5.69503C4.35049 5.98084 4.25004 6.31664 4.25 6.65896H5.75C5.75 6.55896 5.81 6.46796 5.902 6.42796L5.31 5.04996Z" fill="#3B3535" fill-opacity="0.8"/>
<path d="M15 10L11 14L9 12" stroke="#3B3535" stroke-opacity="0.8" stroke-width="1.5" stroke-linecap="round" stroke-linejoin="round"/>
</svg>
